<svg xmlns="http://www.w3.org/2000/svg" fill="white" width="518.96" height="518.4" viewBox="0 0 518.96 518.4"><g id="Capa_2" data-name="Capa 2"><g id="Capa_1-2" data-name="Capa 1"><path d="M113,380.74c7-6.92,13.36-13.19,19.68-19.55q48.13-48.39,96.22-96.8c6.72-6.76,6.66-6.66-.18-13.51Q181.83,204,135.06,157.1,90.18,112.21,45.2,67.39C31.65,53.84,18.29,40.1,4.72,26.58c-2.94-2.92-3-4.91.1-7.76,5.87-5.42,11.49-11.12,17-16.9,2.64-2.76,4.48-2.4,7,.17C47.85,21.47,67,40.71,86,60.14c3,3.1,5,3.63,8.59.63C139.34,23.55,191,4.26,249,1.82c59.58-2.51,113.47,14.31,162.36,48,3,2.08,3.19,3.6.59,6.18q-19.51,19.38-38.75,39c-2.43,2.48-4.21,2.74-7.28.92-10.43-6.18-20.59-13.27-31.79-17.63a209.5,209.5,0,0,0-58.06-14.08c-37.07-3.25-72,4.06-104.86,21-11,5.69-20.94,13.57-31.41,20.37-3.91,2.54-4,4.64-.53,8q35,34.64,69.71,69.6,22.95,23,45.79,46.13c4.37,4.4,4.49,4.42,9-.14q76-76.41,152-152.8c24.69-24.79,49.59-49.38,74.27-74.19,2.8-2.82,4.71-2.89,7.4-.16Q506.24,11,515.3,19.6c2.4,2.27,2.23,3.81-.1,6.12q-59.06,58.68-118,117.51-52.12,52.17-104,104.61l-.7.72c-9.09,9.15-9.1,9.16-.19,18.14q72.21,72.74,144.43,145.46c26.29,26.5,52.46,53.12,78.78,79.58,2.73,2.74,3,4.5.07,7.27-5.48,5.1-10.56,10.63-15.89,15.9-4.72,4.68-4.85,4.64-9.46-.06-17.63-17.94-35.19-36-52.88-53.83-19.34-19.55-38.82-38.95-58.19-58.46q-57.75-58.2-115.38-116.51c-3.33-3.37-5.47-3.55-8.9-.07q-56,56.79-112.23,113.33c-.59.59-1.12,1.24-1.75,1.78-3,2.57-2.8,4.67.38,7.17a195.08,195.08,0,0,0,42.29,25.43,186.76,186.76,0,0,0,76.29,15.93c37.15-.2,71.73-10.33,103-30.79,4.12-2.7,6.45-2.33,9.72,1.05,13,13.41,26.21,26.58,39.36,39.82,4.57,4.59,4.37,4.93-1,8.86a260.86,260.86,0,0,1-95.28,43.5c-21.27,5-42.82,6.19-64.54,5.69-53.72-1.24-101.75-18.92-144.89-50.5-4.69-3.44-9.16-7.23-13.51-11.11-2.59-2.32-4.39-2-6.71.34-18.65,19-37.43,38-56.06,57-5.94,6.07-5.82,6.23-11.9.16-5-4.94-9.73-10.07-14.82-14.87-2.65-2.49-2.87-4.2-.16-6.9,19-18.94,37.85-38,56.8-57,5.33-5.34,5.36-5.2.3-11.15a247.76,247.76,0,0,1-51.61-99.4,257.83,257.83,0,0,1,2-139.18C19.08,156,32.89,129.56,51,105.23c2.8-3.78,4.61-3.51,7.69-.37q19.76,20.16,39.91,40c2.79,2.74,1.19,4.64-.31,6.92A187.33,187.33,0,0,0,70.71,218.3c-11.07,55.95,1.08,106.77,34.22,152.83C107.25,374.34,110,377.24,113,380.74Z"/><path d="M519,259.42c.2,32.29-6.2,63.34-17.72,93.26-8.27,21.51-19.8,41.42-33.35,60.12-1.92,2.65-3.48,3-5.9.58q-21.39-21.72-42.93-43.27c-2.34-2.34-.93-4.13.41-6.13a194.67,194.67,0,0,0,24.06-50.29c12.2-39.26,11.55-78.31-1.11-117.37-5.24-16.15-13.08-30.95-21.95-45.27-1.91-3.09-2-5,.71-7.66,13.08-12.82,25.94-25.87,38.88-38.84,3.95-4,4.73-3.87,8,.53a252.74,252.74,0,0,1,48.78,122C518.15,237.77,518.28,248.63,519,259.42Z"/></g></g></svg>